<?xml version="1.0" standalone="no"?>
<!DOCTYPE svg PUBLIC "-//W3C//DTD SVG 20010904//EN"
 "http://www.w3.org/TR/2001/REC-SVG-20010904/DTD/svg10.dtd">
<svg version="1.0" xmlns="http://www.w3.org/2000/svg"
 width="320.000000pt" height="320.000000pt" viewBox="0 0 320.000000 320.000000"
 preserveAspectRatio="xMidYMid meet">
<metadata>
Created by potrace 1.11, written by Peter Selinger 2001-2013
</metadata>
<g transform="translate(0.000000,320.000000) scale(0.100000,-0.100000)"
fill="#000000" stroke="none">
<path d="M1467 2804 c-7 -7 -26 -11 -92 -18 -16 -2 -38 -7 -48 -11 -10 -4 -20
-5 -24 -2 -3 4 -19 -1 -35 -9 -17 -9 -32 -13 -35 -11 -2 3 -16 -1 -30 -8 -14
-7 -32 -11 -39 -8 -8 3 -14 1 -14 -5 0 -5 -16 -13 -35 -16 -20 -4 -33 -11 -30
-17 4 -5 -4 -8 -17 -6 -12 2 -29 -2 -36 -10 -8 -7 -18 -11 -23 -8 -5 4 -9 1
-9 -4 0 -6 -6 -11 -14 -11 -8 0 -21 -7 -30 -15 -8 -9 -18 -16 -21 -15 -19 1
-26 -2 -45 -22 -11 -12 -20 -18 -20 -14 0 4 -13 -1 -29 -10 -17 -10 -27 -22
-24 -27 3 -6 1 -7 -5 -3 -6 4 -22 -2 -34 -14 -46 -41 -56 -48 -60 -44 -3 2
-23 -14 -46 -36 -23 -22 -44 -40 -47 -40 -2 0 -17 -13 -32 -29 -71 -76 -87
-94 -74 -86 10 5 12 4 7 -3 -4 -7 -13 -12 -21 -12 -10 0 -34 -34 -23 -35 2 0
-4 -8 -12 -17 -8 -9 -19 -13 -24 -10 -5 3 -6 0 -3 -5 4 -6 -4 -23 -18 -39 -13
-15 -22 -31 -19 -36 3 -4 1 -8 -5 -8 -5 0 -17 -18 -27 -40 -10 -22 -22 -40
-27 -40 -4 0 -6 -4 -2 -9 3 -5 -1 -15 -8 -23 -7 -7 -15 -17 -16 -23 -2 -5 -8
-21 -13 -35 -5 -14 -9 -26 -8 -28 1 -2 -6 -14 -14 -28 -9 -13 -14 -24 -12 -24
3 0 -1 -18 -9 -39 -7 -22 -11 -42 -8 -45 4 -3 2 -6 -3 -6 -9 0 -11 -8 -16 -65
-1 -14 -5 -25 -8 -25 -5 0 -11 -59 -11 -112 1 -22 0 -38 -2 -111 -1 -33 1 -61
5 -63 4 -3 3 -16 -2 -29 -5 -14 -6 -25 -1 -25 4 0 7 -12 6 -27 -1 -16 1 -32 3
-38 3 -5 7 -23 9 -40 2 -16 4 -38 5 -47 1 -10 5 -18 9 -18 3 0 6 -14 7 -32 0
-17 4 -34 9 -37 4 -3 8 -15 8 -26 -1 -11 5 -30 13 -42 8 -12 11 -27 7 -33 -3
-5 -1 -10 4 -10 6 0 11 -9 11 -19 0 -11 5 -23 10 -26 6 -3 10 -15 10 -26 0
-10 4 -19 9 -19 5 0 11 -9 14 -21 5 -17 9 -19 25 -10 15 8 21 8 24 0 2 -6 17
-11 33 -11 17 0 34 -3 40 -6 5 -3 16 -7 25 -8 8 -1 35 -5 60 -9 25 -4 50 -8
57 -9 7 -1 15 -5 19 -8 3 -4 12 -4 20 -1 8 3 14 2 13 -3 -4 -19 37 -109 63
-138 10 -10 15 -23 12 -28 -3 -5 -1 -7 4 -6 5 2 22 -10 38 -27 33 -33 60 -53
87 -61 9 -4 17 -11 17 -16 0 -5 5 -6 10 -3 6 3 10 2 10 -3 0 -5 7 -9 15 -10 8
-1 22 -3 30 -4 8 -1 15 -4 15 -8 0 -4 15 -8 33 -8 73 -4 79 -8 82 -54 2 -18 3
-36 4 -40 4 -23 168 -32 180 -10 4 8 12 13 16 13 5 -1 9 229 10 515 l0 517
-23 15 c-38 25 -175 17 -185 -11 -2 -7 -3 -26 -2 -44 1 -17 -1 -31 -4 -31 -7
1 -60 -11 -81 -19 -8 -4 -19 -5 -24 -4 -5 1 -16 -1 -25 -5 -21 -9 -28 -11 -47
-13 -8 0 -13 -5 -10 -10 3 -5 -5 -12 -19 -15 -14 -4 -33 -13 -43 -22 -59 -51
-99 -93 -95 -98 3 -3 -2 -8 -11 -12 -9 -3 -14 -10 -11 -14 3 -5 1 -11 -4 -14
-5 -4 -13 -2 -16 4 -5 8 -11 7 -21 -1 -11 -9 -17 -9 -29 1 -8 6 -18 9 -23 7
-9 -6 -37 8 -37 20 -1 4 -7 25 -14 46 -7 20 -11 43 -8 50 2 6 -1 21 -6 32 -14
25 -17 306 -4 323 5 6 6 12 2 12 -4 0 -2 7 5 15 8 10 9 15 2 15 -7 0 -4 18 8
45 11 25 17 45 13 45 -3 0 0 6 6 14 6 8 10 20 9 27 -2 8 2 13 8 12 6 -1 11 4
11 10 0 20 36 97 45 97 4 0 8 5 8 11 0 6 8 21 18 34 9 12 24 33 32 45 8 12 21
28 28 36 6 7 12 16 12 21 0 11 43 48 53 45 4 -1 7 4 7 12 0 8 9 17 20 21 11 3
19 11 17 18 -1 6 4 12 11 13 6 1 17 2 23 3 5 0 8 4 6 9 -3 4 1 13 9 20 8 7 14
10 14 6 0 -4 14 5 32 22 17 16 28 22 24 14 -4 -8 1 -4 12 9 12 15 24 21 32 16
8 -5 11 -4 7 2 -4 6 7 16 23 23 17 7 35 20 40 29 5 9 10 11 10 4 0 -7 22 0 56
18 31 16 62 29 69 29 7 0 16 6 18 13 4 9 6 9 6 0 1 -9 8 -8 28 2 15 8 30 12
35 9 4 -3 8 -1 8 4 0 5 19 12 43 16 23 4 53 9 67 11 14 2 41 7 60 10 69 12
241 7 320 -9 8 -1 39 -6 68 -11 29 -4 55 -11 58 -16 2 -4 11 -6 19 -2 8 3 15
0 15 -7 0 -7 7 -10 15 -7 8 4 17 2 20 -3 4 -6 15 -10 25 -10 10 0 26 -7 34
-16 9 -8 16 -12 16 -8 0 5 5 3 12 -4 7 -7 20 -12 30 -12 10 0 18 -3 18 -8 0
-4 15 -14 32 -21 60 -27 128 -74 121 -84 -3 -6 -1 -7 6 -3 15 10 43 -13 34
-27 -3 -5 -1 -7 4 -4 10 6 50 -23 93 -68 49 -51 80 -89 80 -97 0 -5 5 -6 11
-2 7 4 10 1 7 -6 -2 -7 5 -23 16 -36 40 -43 47 -54 40 -66 -4 -6 -3 -8 4 -4
10 6 28 -30 24 -46 -1 -5 2 -8 7 -8 5 0 12 -13 16 -30 4 -16 11 -30 17 -30 6
0 9 -3 5 -6 -3 -4 1 -20 9 -36 9 -16 13 -36 10 -43 -3 -8 0 -15 5 -17 5 -2 10
-14 11 -28 1 -14 5 -29 8 -35 9 -13 5 -286 -5 -345 -4 -25 -11 -53 -17 -63 -5
-9 -7 -21 -4 -25 8 -13 -20 -41 -45 -46 -13 -3 -24 -5 -24 -6 0 -7 -53 -6 -65
1 -8 5 -11 9 -6 9 4 0 -2 9 -15 20 -13 10 -20 19 -15 20 5 0 -7 15 -26 32 -57
53 -76 67 -82 61 -3 -3 -8 1 -12 10 -3 9 -12 13 -20 10 -8 -3 -14 0 -14 7 0 6
-4 9 -9 6 -5 -4 -11 -2 -13 4 -1 5 -15 11 -30 12 -16 1 -28 5 -28 9 0 4 -11 6
-25 4 -14 -1 -25 1 -25 5 0 4 -11 5 -25 2 -26 -4 -27 -2 -28 56 0 12 -4 22 -9
22 -5 0 -6 5 -3 10 3 6 -1 10 -9 10 -9 0 -16 3 -16 8 0 6 -76 6 -138 0 -8 -1
-21 -12 -29 -25 -13 -20 -15 -88 -14 -516 2 -538 1 -518 12 -512 3 3 9 -4 12
-14 5 -20 21 -22 45 -8 6 5 12 4 12 -1 0 -5 26 -8 57 -6 61 4 77 17 78 64 0
36 10 46 47 48 47 4 61 7 75 15 7 5 13 5 13 2 0 -4 15 3 34 14 18 12 40 21 47
21 8 0 22 8 30 18 28 31 57 51 64 44 4 -4 5 -2 3 3 -1 6 9 24 24 40 15 17 27
34 27 39 -1 5 3 12 8 15 13 10 30 45 38 80 4 18 9 30 12 28 2 -3 19 -1 36 4
18 6 46 12 62 14 17 2 44 7 60 11 17 4 45 8 63 8 17 1 32 4 32 9 0 4 11 7 25
7 23 0 53 31 59 62 2 7 11 31 21 53 10 22 20 49 23 60 2 11 4 25 6 30 1 6 4
15 7 20 8 13 23 87 20 99 -1 4 2 13 7 20 5 6 10 27 10 46 1 19 8 72 15 118 8
45 12 84 9 86 -3 4 -8 63 -16 198 0 14 -5 24 -10 20 -5 -3 -6 2 -3 12 4 10 4
23 0 29 -4 7 -8 21 -9 32 -1 11 -11 46 -22 78 -12 31 -18 57 -14 57 4 0 3 4
-3 8 -15 11 -39 56 -25 47 7 -4 7 1 -2 14 -7 12 -16 21 -20 21 -4 0 -5 6 -2
13 3 8 -2 20 -11 27 -8 7 -15 17 -15 22 0 6 -9 22 -19 37 -11 15 -21 34 -23
42 -2 8 -11 21 -20 30 -10 9 -18 21 -18 26 0 6 -10 18 -22 27 -13 9 -16 14 -8
11 8 -4 2 5 -13 19 -16 15 -25 31 -21 38 4 7 3 8 -4 4 -7 -4 -12 -2 -12 4 0 6
-4 8 -10 5 -5 -3 -10 0 -10 8 0 13 -31 45 -141 147 -15 14 -33 26 -40 28 -8 2
-18 10 -22 18 -4 8 -13 14 -20 14 -7 1 -27 14 -46 30 -19 16 -38 27 -42 25 -4
-3 -9 2 -13 10 -3 8 -12 15 -21 15 -8 0 -15 5 -15 11 0 5 -4 8 -9 4 -5 -3 -17
2 -25 11 -9 8 -16 13 -16 9 0 -3 -10 1 -22 9 -12 9 -29 16 -37 16 -8 0 -22 7
-32 16 -9 8 -27 16 -40 18 -13 1 -37 9 -54 18 -16 8 -38 14 -47 13 -11 -2 -18
3 -18 11 0 9 -5 12 -10 9 -6 -4 -27 -1 -47 6 -21 7 -49 13 -63 13 -14 1 -30 5
-37 9 -7 4 -23 6 -37 3 -14 -3 -28 -1 -31 4 -3 5 -14 7 -25 5 -11 -2 -22 0
-24 4 -8 12 -253 13 -275 2 -13 -8 -20 -8 -23 0 -2 6 -7 7 -11 3z"/>
</g>
</svg>
